<?xml version="1.0" encoding="utf-8"?>
<!-- Generator: Adobe Illustrator 28.2.0, SVG Export Plug-In . SVG Version: 6.00 Build 0)  -->
<svg version="1.1" id="Layer_1" xmlns="http://www.w3.org/2000/svg" xmlns:xlink="http://www.w3.org/1999/xlink" x="0px" y="0px"
	 viewBox="0 0 32 32" style="enable-background:new 0 0 32 32;" xml:space="preserve">
<style type="text/css">
	.st0{fill:#234EA1;}
</style>
<path class="st0" d="M31.3,17.6c0.9-0.9,0.9-2.3,0-3.2l-4.6-4.6c-0.7-0.7-1.6-0.8-2.5-0.5c-0.9,0.4-1.4,1.2-1.4,2.1v2.3H9.1v-2.3
	c0-0.9-0.6-1.8-1.4-2.1C6.9,9,5.9,9.2,5.2,9.8l-4.6,4.6c-0.9,0.9-0.9,2.3,0,3.2l4.6,4.6c0.7,0.7,1.6,0.8,2.5,0.5s1.4-1.2,1.4-2.1
	v-2.3h13.7v2.3c0,0.9,0.6,1.8,1.4,2.1s1.8,0.2,2.5-0.5L31.3,17.6L31.3,17.6z"/>
</svg>
