<?xml version="1.0" encoding="utf-8"?>
<!-- Generator: Adobe Illustrator 28.2.0, SVG Export Plug-In . SVG Version: 6.00 Build 0)  -->
<svg version="1.1" id="Layer_1" xmlns="http://www.w3.org/2000/svg" xmlns:xlink="http://www.w3.org/1999/xlink" x="0px" y="0px"
	 viewBox="0 0 32 32" style="enable-background:new 0 0 32 32;" xml:space="preserve">
<style type="text/css">
	.st0{display:none;fill:#234EA1;}
	.st1{fill:#234EA1;}
</style>
<path class="st0" d="M12.8,3.2C12.8,1.4,14.2,0,16,0s3.2,1.4,3.2,3.2S17.8,6.4,16,6.4S12.8,5,12.8,3.2z M9.6,12.8
	c0-1.2,1-2.1,2.1-2.1H16c1.2,0,2.1,1,2.1,2.1v14.9h2.1c1.2,0,2.1,1,2.1,2.1s-1,2.1-2.1,2.1h-8.5c-1.2,0-2.1-1-2.1-2.1s1-2.1,2.1-2.1
	h2.1V14.9h-2.1C10.6,14.9,9.6,14,9.6,12.8z"/>
<path class="st1" d="M0,3.4C0,1.5,1.5,0,3.4,0h6.9c1.9,0,3.4,1.5,3.4,3.4v6.9c0,1.9-1.5,3.4-3.4,3.4H3.4c-1.9,0-3.4-1.5-3.4-3.4V3.4
	z M4.6,4.6v4.6h4.6V4.6H4.6z M0,21.7c0-1.9,1.5-3.4,3.4-3.4h6.9c1.9,0,3.4,1.5,3.4,3.4v6.9c0,1.9-1.5,3.4-3.4,3.4H3.4
	C1.5,32,0,30.5,0,28.6V21.7z M4.6,22.9v4.6h4.6v-4.6H4.6z M21.7,0h6.9C30.5,0,32,1.5,32,3.4v6.9c0,1.9-1.5,3.4-3.4,3.4h-6.9
	c-1.9,0-3.4-1.5-3.4-3.4V3.4C18.3,1.5,19.8,0,21.7,0z M27.4,4.6h-4.6v4.6h4.6V4.6z M18.3,19.4c0-0.6,0.5-1.1,1.1-1.1H24
	c0.6,0,1.1,0.5,1.1,1.1s0.5,1.1,1.1,1.1h2.3c0.6,0,1.1-0.5,1.1-1.1s0.5-1.1,1.1-1.1s1.1,0.5,1.1,1.1v6.9c0,0.6-0.5,1.1-1.1,1.1h-4.6
	c-0.6,0-1.1-0.5-1.1-1.1s-0.5-1.1-1.1-1.1s-1.1,0.5-1.1,1.1v4.6c0,0.6-0.5,1.1-1.1,1.1h-2.3c-0.6,0-1.1-0.5-1.1-1.1V19.4z M26.3,32
	c-0.6,0-1.1-0.5-1.1-1.1s0.5-1.1,1.1-1.1c0.6,0,1.1,0.5,1.1,1.1S26.9,32,26.3,32z M30.9,32c-0.6,0-1.1-0.5-1.1-1.1s0.5-1.1,1.1-1.1
	s1.1,0.5,1.1,1.1S31.5,32,30.9,32z"/>
</svg>
