<?xml version="1.0" encoding="utf-8"?>
<!-- Generator: Adobe Illustrator 28.1.0, SVG Export Plug-In . SVG Version: 6.00 Build 0)  -->
<svg version="1.1" id="Layer_1" xmlns="http://www.w3.org/2000/svg" xmlns:xlink="http://www.w3.org/1999/xlink" x="0px" y="0px"
	 viewBox="0 0 32 26.3" style="enable-background:new 0 0 32 26.3;" xml:space="preserve">
<style type="text/css">
	.st0{fill-rule:evenodd;clip-rule:evenodd;fill:#234EA1;}
</style>
<g>
	<path class="st0" d="M16,26.3c-4.6,0-9.3,0-13.9,0c-1.2,0-2.1-1.2-2.1-2.9c0-5.8,0-8.6,0-14.5C0,7.4,0.1,7.3,1,8
		c4.3,3.2,8.7,6.1,13,9.3c1.3,1,2.6,1,3.9,0c4.3-3.2,8.7-6.1,13-9.3c0.2-0.1,0.3-0.2,0.4-0.3C31.8,7.5,32,7.6,32,8.3
		c0,6.2,0,9.3,0,15.5c0,1.3-1,2.4-2,2.5C25.4,26.3,20.7,26.3,16,26.3z"/>
	<path class="st0" d="M16,0c4.9,0,9.9,0,14.8,0c0.4,0,0.9-0.1,1.1,0.5c0.2,0.6-0.2,1.2-0.4,1.6c-0.2,0.3-0.5,0.5-0.7,0.7
		c-4.3,3.3-8.6,6.2-12.9,9.4c-1.2,0.9-2.4,0.9-3.7,0C9.9,9,5.6,6.1,1.3,2.9C0.8,2.5,0.4,2.1,0.2,1.4c-0.3-0.8,0-1.3,0.6-1.4
		c0.1,0,0.3,0,0.5,0C6.2,0,11.1,0,16,0z"/>
</g>
</svg>
