<?xml version="1.0" encoding="utf-8"?>
<!-- Generator: Adobe Illustrator 28.1.0, SVG Export Plug-In . SVG Version: 6.00 Build 0)  -->
<svg version="1.1" id="Layer_1" xmlns="http://www.w3.org/2000/svg" xmlns:xlink="http://www.w3.org/1999/xlink" x="0px" y="0px"
	 viewBox="0 0 32 27.1" style="enable-background:new 0 0 32 27.1;" xml:space="preserve">
<style type="text/css">
	.st0{fill:#234EA1;}
</style>
<g>
	<path class="st0" d="M24.5,17.6c-0.2,0.5-0.4,1-0.7,1.5l0.8,2.3c0.7-1,1.2-2,1.6-3.1L24.5,17.6z M13.5,0C6.1,0,0,6.1,0,13.5
		C0,21,6.1,27.1,13.5,27.1c4.2,0,7.9-1.9,10.4-4.9L23.3,20c-0.3,0.4-0.6,0.8-0.9,1.2c-0.9-0.8-1.9-1.4-2.9-1.9
		c0.3-1.5,0.5-3.2,0.6-4.9h5.1c-0.1,0.8-0.2,1.6-0.5,2.4l1.7,0.6c0.4-1.2,0.6-2.5,0.6-3.8C27.1,6.1,21,0,13.5,0z M13.5,1.8
		c1.4,0,2.8,1.8,3.8,4.9c-1.2,0.4-2.5,0.6-3.8,0.6c-1.3,0-2.6-0.2-3.8-0.6C10.7,3.7,12.2,1.8,13.5,1.8z M8.8,12.6
		c0-1.5,0.2-2.9,0.5-4.2c1.3,0.4,2.8,0.7,4.2,0.7s2.9-0.2,4.2-0.7c0.3,1.2,0.4,2.6,0.5,4.2C18.3,12.6,8.8,12.6,8.8,12.6z M18.3,14.4
		c0,1.5-0.2,2.9-0.5,4.2c-1.3-0.4-2.8-0.7-4.2-0.7s-2.9,0.2-4.2,0.7c-0.3-1.3-0.4-2.7-0.5-4.2L18.3,14.4L18.3,14.4z M9.7,2.5
		C9.3,3,9,3.6,8.7,4.2C8.5,4.8,8.3,5.4,8.1,6C7.4,5.6,6.7,5.1,6,4.6C7.1,3.7,8.3,3,9.7,2.5z M4.7,5.9c0.9,0.8,1.9,1.4,2.9,1.9
		C7.3,9.3,7.1,10.9,7,12.6H1.9C2.1,10.1,3.1,7.7,4.7,5.9z M1.9,14.4H7c0,1.7,0.2,3.3,0.6,4.9c-1,0.5-2,1.1-2.9,1.9
		C3.1,19.4,2.1,17,1.9,14.4z M6,22.5c0.6-0.5,1.3-1,2.1-1.4c0.2,0.6,0.4,1.2,0.7,1.7c0.3,0.7,0.6,1.2,0.9,1.7
		C8.3,24.1,7.1,23.4,6,22.5z M13.5,25.2c-1.4,0-2.9-1.8-3.8-4.9c1.2-0.4,2.5-0.6,3.8-0.6c1.3,0,2.6,0.2,3.8,0.6
		C16.4,23.4,14.9,25.2,13.5,25.2z M21.1,22.5c-1.1,0.9-2.3,1.6-3.7,2.1c0.4-0.5,0.7-1.1,1-1.7c0.2-0.6,0.5-1.1,0.7-1.7
		C19.7,21.5,20.4,22,21.1,22.5z M19,6c-0.2-0.6-0.4-1.2-0.7-1.7c-0.3-0.7-0.6-1.3-1-1.8C18.7,3,20,3.7,21.1,4.6
		C20.4,5.1,19.7,5.6,19,6z M20.1,12.6c0-1.7-0.3-3.3-0.6-4.9c1-0.5,2-1.1,2.9-1.9c1.6,1.8,2.6,4.2,2.8,6.8L20.1,12.6L20.1,12.6z"/>
	<g>
		<path class="st0" d="M23.3,17.2l1.2,0.4l1.7,0.6l5.4,1.8L29.9,21c-0.3,0.1-0.4,0.4-0.5,0.7c0,0.3,0,0.5,0.2,0.8l2.4,2.4L30.8,26
			l-2.4-2.4c-0.2-0.2-0.4-0.3-0.6-0.3c0,0-0.1,0-0.1,0c-0.3,0-0.5,0.2-0.7,0.4l-1,1.8l-1.4-4.2L23.3,17.2"/>
	</g>
</g>
</svg>
