<?xml version="1.0" encoding="utf-8"?>
<!-- Generator: Adobe Illustrator 28.1.0, SVG Export Plug-In . SVG Version: 6.00 Build 0)  -->
<svg version="1.1" id="Layer_1" xmlns="http://www.w3.org/2000/svg" xmlns:xlink="http://www.w3.org/1999/xlink" x="0px" y="0px"
	 viewBox="0 0 31.8 32" style="enable-background:new 0 0 31.8 32;" xml:space="preserve">
<style type="text/css">
	.st0{fill-rule:evenodd;clip-rule:evenodd;fill:#234EA1;}
</style>
<g>
	<g>
		<path class="st0" d="M16.2,0C7.6,0,0.6,7,0.6,15.6c0,2.9,0.8,5.7,2.2,8L0,32l8.6-2.8c2.2,1.2,4.8,1.9,7.5,1.9
			c8.6,0,15.6-7,15.6-15.6C31.8,7,24.8,0,16.2,0z M16.2,28.6c-2.6,0-5.1-0.8-7.1-2.1L4,28l1.6-4.8c-1.6-2.1-2.5-4.8-2.5-7.6
			c0-7.2,5.8-13,13-13s13,5.8,13,13C29.1,22.7,23.3,28.6,16.2,28.6z M23.5,19.1c-0.4-0.2-2.3-1.3-2.7-1.4c-0.4-0.1-0.6-0.2-0.9,0.2
			s-1.1,1.3-1.3,1.5c-0.2,0.3-0.5,0.3-0.9,0.1s-1.7-0.7-3.1-2.1c-1.1-1.1-1.9-2.4-2.1-2.8c-0.2-0.4,0-0.6,0.2-0.8
			c0.2-0.2,0.4-0.5,0.6-0.7c0.2-0.2,0.3-0.4,0.4-0.6c0.1-0.3,0.1-0.5,0-0.7c-0.1-0.2-0.8-2.2-1.1-3C12.3,7.9,12,8,11.7,8
			C11.5,8,11.2,8,11,8c-0.3,0-0.7,0.1-1.1,0.5c-0.4,0.4-1.4,1.3-1.5,3.3c-0.1,2,1.3,3.9,1.5,4.2c0.2,0.3,2.6,4.5,6.6,6.3
			c4,1.7,4,1.2,4.7,1.2c0.7,0,2.4-0.9,2.8-1.8c0.4-0.9,0.4-1.7,0.3-1.9C24.1,19.5,23.9,19.3,23.5,19.1z"/>
	</g>
</g>
</svg>
