<?xml version="1.0" encoding="utf-8"?>
<!-- Generator: Adobe Illustrator 28.3.0, SVG Export Plug-In . SVG Version: 6.00 Build 0)  -->
<svg version="1.1" id="Layer_1" xmlns="http://www.w3.org/2000/svg" xmlns:xlink="http://www.w3.org/1999/xlink" x="0px" y="0px"
	 viewBox="0 0 32 32" style="enable-background:new 0 0 32 32;" xml:space="preserve">
<style type="text/css">
	.st0{display:none;fill:#234EA1;}
	.st1{fill:#234EA1;}
</style>
<path class="st0" d="M14.1,0.4C14.1,0.2,13.8,0,13.6,0h-1.2c-0.2,0-0.5,0.2-0.6,0.4l-1.3,3.2c-0.2,0.5-0.9,0.5-1.1,0L8.1,0.4
	C8.1,0.2,7.8,0,7.6,0H7C5.3,0,4,1.3,4,3v11v1.4V16h0.6h22.8H28v-0.6V14V3c0-1.7-1.3-3-3-3h-6.6c-0.2,0-0.5,0.2-0.6,0.4l-1.3,3.2
	c-0.2,0.5-0.9,0.5-1.1,0L14.1,0.4z M4,18v2c0,2.2,1.8,4,4,4h4v4c0,2.2,1.8,4,4,4s4-1.8,4-4v-4h4c2.2,0,4-1.8,4-4v-2H4z M16,27
	c0.6,0,1,0.4,1,1s-0.4,1-1,1c-0.6,0-1-0.4-1-1S15.4,27,16,27z"/>
<path class="st1" d="M32,16c0,0.1,0,0.1,0,0.2c0,2.3-2.1,3.8-4.4,3.8h-6.1c-1.7,0-3,1.3-3,3c0,0.2,0,0.4,0.1,0.6
	c0.1,0.6,0.4,1.2,0.7,1.9c0.4,0.9,0.8,1.7,0.8,2.6c0,2-1.4,3.8-3.3,3.9c-0.2,0-0.4,0-0.7,0C7.2,32,0,24.8,0,16S7.2,0,16,0
	S32,7.2,32,16z M8,18c0-1.1-0.9-2-2-2s-2,0.9-2,2s0.9,2,2,2S8,19.1,8,18z M8,12c1.1,0,2-0.9,2-2S9.1,8,8,8s-2,0.9-2,2S6.9,12,8,12z
	 M18,6c0-1.1-0.9-2-2-2s-2,0.9-2,2s0.9,2,2,2S18,7.1,18,6z M24,12c1.1,0,2-0.9,2-2s-0.9-2-2-2s-2,0.9-2,2S22.9,12,24,12z"/>
</svg>
