<?xml version="1.0" encoding="utf-8"?>
<!-- Generator: Adobe Illustrator 28.2.0, SVG Export Plug-In . SVG Version: 6.00 Build 0)  -->
<svg version="1.1" id="Layer_1" xmlns="http://www.w3.org/2000/svg" xmlns:xlink="http://www.w3.org/1999/xlink" x="0px" y="0px"
	 viewBox="0 0 32 32" style="enable-background:new 0 0 32 32;" xml:space="preserve">
<style type="text/css">
	.st0{fill:#234EA1;}
</style>
<path class="st0" d="M17.6,0.7c-0.9-0.9-2.3-0.9-3.2,0L9.8,5.2C9.2,5.9,9,6.9,9.3,7.7c0.4,0.9,1.2,1.4,2.1,1.4h2.3v13.7h-2.3
	c-0.9,0-1.8,0.6-2.1,1.4c-0.4,0.9-0.2,1.8,0.5,2.5l4.6,4.6c0.9,0.9,2.3,0.9,3.2,0l4.6-4.6c0.7-0.7,0.8-1.6,0.5-2.5
	c-0.4-0.9-1.2-1.4-2.1-1.4h-2.3V9.1h2.3c0.9,0,1.8-0.6,2.1-1.4s0.2-1.8-0.5-2.5L17.6,0.7L17.6,0.7z"/>
</svg>
