<?xml version="1.0" encoding="utf-8"?>
<!-- Generator: Adobe Illustrator 28.1.0, SVG Export Plug-In . SVG Version: 6.00 Build 0)  -->
<svg version="1.1" id="Layer_1" xmlns="http://www.w3.org/2000/svg" xmlns:xlink="http://www.w3.org/1999/xlink" x="0px" y="0px"
	 viewBox="0 0 32 32" style="enable-background:new 0 0 32 32;" xml:space="preserve">
<style type="text/css">
	.st0{fill:#234EA1;}
</style>
<path class="st0" d="M18.1,22.5c1.6-0.2,3.1-1.1,4-2.5l9.5-14.7c0.7-1.1,0.6-2.7-0.4-3.6c-1-0.9-2.5-1-3.6-0.2L13.6,12
	c-1.4,1.1-2.2,2.7-2.3,4.5L18.1,22.5z M16.9,24l-6.8-6.1c-3.5,0.1-6.3,3-6.3,6.6c0,0.2,0,0.5,0,0.7c0.1,1-0.6,2.1-1.6,2.1H1.9
	c-1,0-1.9,0.8-1.9,1.9s0.8,1.9,1.9,1.9h8.5c3.6,0,6.6-2.9,6.6-6.6C16.9,24.3,16.9,24.2,16.9,24L16.9,24z"/>
</svg>
