<?xml version="1.0" encoding="utf-8"?>
<!-- Generator: Adobe Illustrator 28.2.0, SVG Export Plug-In . SVG Version: 6.00 Build 0)  -->
<svg version="1.1" id="Layer_1" xmlns="http://www.w3.org/2000/svg" xmlns:xlink="http://www.w3.org/1999/xlink" x="0px" y="0px"
	 viewBox="0 0 32 32" style="enable-background:new 0 0 32 32;" xml:space="preserve">
<style type="text/css">
	.st0{fill:#234EA1;}
</style>
<path class="st0" d="M11,31.1c-1.2,1.2-3.1,1.2-4.3,0l-5.8-5.9c-1.2-1.2-1.2-3.1,0-4.3l3.2-3.2l3,3c0.4,0.4,1,0.4,1.4,0
	c0.4-0.4,0.4-1,0-1.4l-3-3l2.6-2.6l3,3c0.4,0.4,1,0.4,1.4,0c0.4-0.4,0.4-1,0-1.4l-3-3l2.6-2.6l3,3c0.4,0.4,1,0.4,1.4,0
	c0.4-0.4,0.4-1,0-1.4l-3-3l2.6-2.6l3,3c0.4,0.4,1,0.4,1.4,0s0.4-1,0-1.4l-3-3L21,0.9c1.2-1.2,3.1-1.2,4.3,0l5.8,5.8
	c1.2,1.2,1.2,3.1,0,4.3L11,31.1z"/>
</svg>
